<svg xmlns="http://www.w3.org/2000/svg" style="border: 0 !important; clip: rect(0 0 0 0) !important; height: 1px !important; margin: -1px !important; overflow: hidden !important; padding: 0 !important; position: absolute !important; width: 1px !important;" class="root-svg-symbols-element">
    <symbol id="cookies" viewBox="0 0 24 24">
      <path d="M14 8C14.5523 8 15 7.55228 15 7C15 6.44772 14.5523 6 14 6C13.4477 6 13 6.44772 13 7C13 7.55228 13.4477 8 14 8Z"/><path d="M15 13C15.5523 13 16 12.5523 16 12C16 11.4477 15.5523 11 15 11C14.4477 11 14 11.4477 14 12C14 12.5523 14.4477 13 15 13Z"/><path d="M18 11C18.5523 11 19 10.5523 19 10C19 9.44772 18.5523 9 18 9C17.4477 9 17 9.44772 17 10C17 10.5523 17.4477 11 18 11Z"/><path d="M7 18C7.55228 18 8 17.5523 8 17C8 16.4477 7.55228 16 7 16C6.44772 16 6 16.4477 6 17C6 17.5523 6.44772 18 7 18Z"/><path fill-rule="evenodd" clip-rule="evenodd" d="M16.6787 16.6787C19.7583 15.7453 22 12.8844 22 9.5C22 5.35786 18.6421 2 14.5 2C11.1156 2 8.25474 4.24173 7.32134 7.32134C4.24173 8.25474 2 11.1156 2 14.5C2 18.6421 5.35786 22 9.5 22C12.8844 22 15.7453 19.7583 16.6787 16.6787ZM14.9794 14.9794C14.8214 14.993 14.6615 15 14.5 15C11.4624 15 9 12.5376 9 9.5C9 9.33848 9.00696 9.17859 9.0206 9.02061C9.08297 8.29833 9.28493 7.61597 9.59938 7.00065C10.5096 5.21946 12.3624 4 14.5 4C17.5376 4 20 6.46243 20 9.5C20 11.6376 18.7805 13.4904 16.9994 14.4006C16.384 14.7151 15.7017 14.917 14.9794 14.9794ZM7.47997 12.1457C7.18079 11.3522 7.01227 10.4947 7.00065 9.59938C5.21946 10.5096 4 12.3624 4 14.5C4 17.5376 6.46243 20 9.5 20C11.6376 20 13.4904 18.7805 14.4006 16.9994C13.5162 16.9879 12.6687 16.8233 11.8834 16.5309C11.9578 16.6708 12 16.8305 12 17C12 17.5523 11.5523 18 11 18C10.4477 18 10 17.5523 10 17C10 16.5186 10.3401 16.1167 10.7932 16.0214C9.86197 15.491 9.05544 14.7668 8.42841 13.9038C8.29856 13.9655 8.15331 14 8 14C7.44772 14 7 13.5523 7 13C7 12.6382 7.19215 12.3213 7.47997 12.1457Z"/>
    </symbol>
    <symbol id="error" viewBox="0 0 24 24">
      <path d="M17.7071 7.70711C18.0976 7.31658 18.0976 6.68342 17.7071 6.29289C17.3166 5.90237 16.6834 5.90237 16.2929 6.29289L12 10.5858L7.70711 6.29289C7.31658 5.90237 6.68342 5.90237 6.29289 6.29289C5.90237 6.68342 5.90237 7.31658 6.29289 7.70711L10.5858 12L6.29289 16.2929C5.90237 16.6834 5.90237 17.3166 6.29289 17.7071C6.68342 18.0976 7.31658 18.0976 7.70711 17.7071L12 13.4142L16.2929 17.7071C16.6834 18.0976 17.3166 18.0976 17.7071 17.7071C18.0976 17.3166 18.0976 16.6834 17.7071 16.2929L13.4142 12L17.7071 7.70711Z"/>
    </symbol>
    <symbol id="favourite" viewBox="0 0 24 22">
      <path d="M12 4.27273C12.2898 4.27273 12.5089 4.16042 12.6163 4.097C12.7364 4.02605 12.8367 3.94324 12.9097 3.87805C13.0546 3.74868 13.2076 3.5828 13.3427 3.43429C13.3793 3.39403 13.4164 3.35302 13.4542 3.31135C13.7173 3.02069 14.0095 2.69798 14.3634 2.37332C15.17 1.6335 16.1764 1 17.4545 1C19.365 1 20.7244 1.70648 21.6162 2.70982C22.5244 3.73156 23 5.12216 23 6.54545C23 8.59844 21.87 10.7837 19.8031 13.1362C17.8149 15.399 15.073 17.69 12 20.0203C8.92702 17.69 6.18507 15.399 4.19691 13.1362C2.13004 10.7837 1 8.59844 1 6.54545C1 5.12216 1.47556 3.73156 2.38377 2.70982C3.27563 1.70648 4.63499 1 6.54545 1C7.82358 1 8.82995 1.6335 9.63656 2.37332C9.99052 2.69798 10.2827 3.02069 10.5458 3.31135C10.5836 3.35302 10.6207 3.39403 10.6573 3.43429C10.7924 3.5828 10.9454 3.74868 11.0903 3.87805C11.1633 3.94324 11.2636 4.02605 11.3837 4.097C11.4911 4.16042 11.7102 4.27273 12 4.27273Z"/>
    </symbol>
    <symbol id="minus" viewBox="0 0 20 20">
      <path d="M6 9C5.44772 9 5 9.44772 5 10C5 10.5523 5.44772 11 6 11H14C14.5523 11 15 10.5523 15 10C15 9.44772 14.5523 9 14 9H6Z"/>
    </symbol>
    <symbol id="nav-item" viewBox="0 0 24 24">
      <path fill-rule="evenodd" clip-rule="evenodd" d="M8 0C3.58172 0 0 3.58172 0 8V16C0 20.4183 3.58172 24 8 24H16C20.4183 24 24 20.4183 24 16V8C24 3.58172 20.4183 0 16 0H8ZM15.2494 9.56174C16.1119 8.87172 16.2518 7.61313 15.5617 6.75061C14.8717 5.88809 13.6131 5.74824 12.7506 6.43826L5.79844 12L12.7506 17.5617C13.6131 18.2518 14.8717 18.1119 15.5617 17.2494C16.2518 16.3869 16.1119 15.1283 15.2494 14.4383L12.2016 12L15.2494 9.56174Z"/>
    </symbol>
    <symbol id="plus" viewBox="0 0 20 20">
      <path d="M11 9V6C11 5.44772 10.5523 5 10 5C9.44772 5 9 5.44772 9 6V9H6C5.44772 9 5 9.44772 5 10C5 10.5523 5.44772 11 6 11H9V14C9 14.5523 9.44772 15 10 15C10.5523 15 11 14.5523 11 14V11H14C14.5523 11 15 10.5523 15 10C15 9.44772 14.5523 9 14 9H11Z"/>
    </symbol>
    <symbol id="success" viewBox="0 0 24 24">
      <path fill-rule="evenodd" clip-rule="evenodd" d="M20.722 6.3081C21.1041 6.70684 21.0907 7.33986 20.6919 7.72199L9.56522 18.3851L3.3081 12.3887C2.90935 12.0065 2.89588 11.3735 3.27801 10.9748C3.66014 10.576 4.29316 10.5626 4.69191 10.9447L9.56522 15.6149L19.3081 6.27801C19.7068 5.89588 20.3399 5.90935 20.722 6.3081Z"/>
    </symbol></svg>