<svg width="24" height="22" viewBox="0 0 24 22" xmlns="http://www.w3.org/2000/svg"><path d="M12 4.27273C12.2898 4.27273 12.5089 4.16042 12.6163 4.097C12.7364 4.02605 12.8367 3.94324 12.9097 3.87805C13.0546 3.74868 13.2076 3.5828 13.3427 3.43429C13.3793 3.39403 13.4164 3.35302 13.4542 3.31135C13.7173 3.02069 14.0095 2.69798 14.3634 2.37332C15.17 1.6335 16.1764 1 17.4545 1C19.365 1 20.7244 1.70648 21.6162 2.70982C22.5244 3.73156 23 5.12216 23 6.54545C23 8.59844 21.87 10.7837 19.8031 13.1362C17.8149 15.399 15.073 17.69 12 20.0203C8.92702 17.69 6.18507 15.399 4.19691 13.1362C2.13004 10.7837 1 8.59844 1 6.54545C1 5.12216 1.47556 3.73156 2.38377 2.70982C3.27563 1.70648 4.63499 1 6.54545 1C7.82358 1 8.82995 1.6335 9.63656 2.37332C9.99052 2.69798 10.2827 3.02069 10.5458 3.31135C10.5836 3.35302 10.6207 3.39403 10.6573 3.43429C10.7924 3.5828 10.9454 3.74868 11.0903 3.87805C11.1633 3.94324 11.2636 4.02605 11.3837 4.097C11.4911 4.16042 11.7102 4.27273 12 4.27273Z"/></svg>